<svg width="248" height="48" viewBox="0 0 248 48" fill="none" xmlns="http://www.w3.org/2000/svg">
<path d="M0 4C0 1.79086 1.79086 0 4 0H244C246.209 0 248 1.79086 248 4V44C248 46.2091 246.209 48 244 48H4C1.79086 48 0 46.2091 0 44V4Z" fill="#01A9F4"/>
<path d="M17.064 19.004H21.838C22.9393 19.004 23.7653 19.242 24.316 19.718C24.8667 20.194 25.142 20.8567 25.142 21.706C25.142 22.182 25.072 22.5787 24.932 22.896C24.792 23.204 24.6287 23.456 24.442 23.652C24.2553 23.8387 24.0687 23.974 23.882 24.058C23.7047 24.142 23.574 24.198 23.49 24.226V24.254C23.6393 24.2727 23.798 24.3193 23.966 24.394C24.1433 24.4687 24.3067 24.59 24.456 24.758C24.6053 24.9167 24.7267 25.1267 24.82 25.388C24.9227 25.6493 24.974 25.976 24.974 26.368C24.974 26.956 25.016 27.4927 25.1 27.978C25.1933 28.454 25.3333 28.7947 25.52 29H23.644C23.5133 28.7853 23.434 28.5473 23.406 28.286C23.3873 28.0247 23.378 27.7727 23.378 27.53C23.378 27.0727 23.35 26.6807 23.294 26.354C23.238 26.018 23.1353 25.7427 22.986 25.528C22.8367 25.304 22.6313 25.1407 22.37 25.038C22.118 24.9353 21.7913 24.884 21.39 24.884H18.814V29H17.064V19.004ZM18.814 23.554H21.684C22.244 23.554 22.6687 23.4233 22.958 23.162C23.2473 22.8913 23.392 22.49 23.392 21.958C23.392 21.6407 23.3453 21.384 23.252 21.188C23.1587 20.9827 23.028 20.824 22.86 20.712C22.7013 20.6 22.5147 20.5253 22.3 20.488C22.0947 20.4507 21.88 20.432 21.656 20.432H18.814V23.554ZM31.6674 24.744C31.6488 24.492 31.5928 24.2493 31.4994 24.016C31.4154 23.7827 31.2941 23.582 31.1354 23.414C30.9861 23.2367 30.7994 23.0967 30.5754 22.994C30.3608 22.882 30.1181 22.826 29.8474 22.826C29.5674 22.826 29.3108 22.8773 29.0774 22.98C28.8534 23.0733 28.6574 23.2087 28.4894 23.386C28.3308 23.554 28.2001 23.7547 28.0974 23.988C28.0041 24.2213 27.9528 24.4733 27.9434 24.744H31.6674ZM27.9434 25.794C27.9434 26.074 27.9808 26.3447 28.0554 26.606C28.1394 26.8673 28.2608 27.096 28.4194 27.292C28.5781 27.488 28.7788 27.6467 29.0214 27.768C29.2641 27.88 29.5534 27.936 29.8894 27.936C30.3561 27.936 30.7294 27.838 31.0094 27.642C31.2988 27.4367 31.5134 27.1333 31.6534 26.732H33.1654C33.0814 27.124 32.9368 27.474 32.7314 27.782C32.5261 28.09 32.2788 28.3513 31.9894 28.566C31.7001 28.7713 31.3734 28.9253 31.0094 29.028C30.6548 29.14 30.2814 29.196 29.8894 29.196C29.3201 29.196 28.8161 29.1027 28.3774 28.916C27.9388 28.7293 27.5654 28.468 27.2574 28.132C26.9588 27.796 26.7301 27.3947 26.5714 26.928C26.4221 26.4613 26.3474 25.948 26.3474 25.388C26.3474 24.8747 26.4268 24.3893 26.5854 23.932C26.7534 23.4653 26.9868 23.0593 27.2854 22.714C27.5934 22.3593 27.9621 22.0793 28.3914 21.874C28.8208 21.6687 29.3061 21.566 29.8474 21.566C30.4168 21.566 30.9254 21.6873 31.3734 21.93C31.8308 22.1633 32.2088 22.476 32.5074 22.868C32.8061 23.26 33.0208 23.7127 33.1514 24.226C33.2914 24.73 33.3288 25.2527 33.2634 25.794H27.9434ZM34.4767 21.762H35.9887V22.826L36.0167 22.854C36.2594 22.4527 36.5767 22.14 36.9687 21.916C37.3607 21.6827 37.7947 21.566 38.2707 21.566C39.0641 21.566 39.6894 21.7713 40.1467 22.182C40.6041 22.5927 40.8327 23.2087 40.8327 24.03V29H39.2367V24.45C39.2181 23.8807 39.0967 23.47 38.8727 23.218C38.6487 22.9567 38.2987 22.826 37.8227 22.826C37.5521 22.826 37.3094 22.8773 37.0947 22.98C36.8801 23.0733 36.6981 23.2087 36.5487 23.386C36.3994 23.554 36.2827 23.7547 36.1987 23.988C36.1147 24.2213 36.0727 24.4687 36.0727 24.73V29H34.4767V21.762ZM47.4858 24.744C47.4671 24.492 47.4111 24.2493 47.3178 24.016C47.2338 23.7827 47.1124 23.582 46.9538 23.414C46.8044 23.2367 46.6178 23.0967 46.3938 22.994C46.1791 22.882 45.9364 22.826 45.6658 22.826C45.3858 22.826 45.1291 22.8773 44.8958 22.98C44.6718 23.0733 44.4758 23.2087 44.3078 23.386C44.1491 23.554 44.0184 23.7547 43.9158 23.988C43.8224 24.2213 43.7711 24.4733 43.7618 24.744H47.4858ZM43.7618 25.794C43.7618 26.074 43.7991 26.3447 43.8738 26.606C43.9578 26.8673 44.0791 27.096 44.2378 27.292C44.3964 27.488 44.5971 27.6467 44.8398 27.768C45.0824 27.88 45.3718 27.936 45.7078 27.936C46.1744 27.936 46.5478 27.838 46.8278 27.642C47.1171 27.4367 47.3318 27.1333 47.4718 26.732H48.9838C48.8998 27.124 48.7551 27.474 48.5498 27.782C48.3444 28.09 48.0971 28.3513 47.8078 28.566C47.5184 28.7713 47.1918 28.9253 46.8278 29.028C46.4731 29.14 46.0998 29.196 45.7078 29.196C45.1384 29.196 44.6344 29.1027 44.1958 28.916C43.7571 28.7293 43.3838 28.468 43.0758 28.132C42.7771 27.796 42.5484 27.3947 42.3898 26.928C42.2404 26.4613 42.1658 25.948 42.1658 25.388C42.1658 24.8747 42.2451 24.3893 42.4038 23.932C42.5718 23.4653 42.8051 23.0593 43.1038 22.714C43.4118 22.3593 43.7804 22.0793 44.2098 21.874C44.6391 21.6687 45.1244 21.566 45.6658 21.566C46.2351 21.566 46.7438 21.6873 47.1918 21.93C47.6491 22.1633 48.0271 22.476 48.3258 22.868C48.6244 23.26 48.8391 23.7127 48.9698 24.226C49.1098 24.73 49.1471 25.2527 49.0818 25.794H43.7618ZM49.6371 21.762H51.3311L52.7451 27.166H52.7731L54.1311 21.762H55.7411L57.0431 27.166H57.0711L58.5411 21.762H60.1651L57.8971 29H56.2591L54.9151 23.624H54.8871L53.5571 29H51.8771L49.6371 21.762ZM65.242 19.004H67.09L71.654 26.368H71.682V19.004H73.348V29H71.5L66.95 21.65H66.908V29H65.242V19.004ZM78.5096 29.196C77.9309 29.196 77.4129 29.1027 76.9556 28.916C76.5076 28.72 76.1249 28.454 75.8076 28.118C75.4996 27.782 75.2616 27.3807 75.0936 26.914C74.9349 26.4473 74.8556 25.934 74.8556 25.374C74.8556 24.8233 74.9349 24.3147 75.0936 23.848C75.2616 23.3813 75.4996 22.98 75.8076 22.644C76.1249 22.308 76.5076 22.0467 76.9556 21.86C77.4129 21.664 77.9309 21.566 78.5096 21.566C79.0882 21.566 79.6016 21.664 80.0496 21.86C80.5069 22.0467 80.8896 22.308 81.1976 22.644C81.5149 22.98 81.7529 23.3813 81.9116 23.848C82.0796 24.3147 82.1636 24.8233 82.1636 25.374C82.1636 25.934 82.0796 26.4473 81.9116 26.914C81.7529 27.3807 81.5149 27.782 81.1976 28.118C80.8896 28.454 80.5069 28.72 80.0496 28.916C79.6016 29.1027 79.0882 29.196 78.5096 29.196ZM78.5096 27.936C78.8642 27.936 79.1722 27.8613 79.4336 27.712C79.6949 27.5627 79.9096 27.3667 80.0776 27.124C80.2456 26.8813 80.3669 26.6107 80.4416 26.312C80.5256 26.004 80.5676 25.6913 80.5676 25.374C80.5676 25.066 80.5256 24.758 80.4416 24.45C80.3669 24.142 80.2456 23.8713 80.0776 23.638C79.9096 23.3953 79.6949 23.1993 79.4336 23.05C79.1722 22.9007 78.8642 22.826 78.5096 22.826C78.1549 22.826 77.8469 22.9007 77.5856 23.05C77.3242 23.1993 77.1096 23.3953 76.9416 23.638C76.7736 23.8713 76.6476 24.142 76.5636 24.45C76.4889 24.758 76.4516 25.066 76.4516 25.374C76.4516 25.6913 76.4889 26.004 76.5636 26.312C76.6476 26.6107 76.7736 26.8813 76.9416 27.124C77.1096 27.3667 77.3242 27.5627 77.5856 27.712C77.8469 27.8613 78.1549 27.936 78.5096 27.936ZM82.8324 21.762H84.5264L85.9404 27.166H85.9684L87.3264 21.762H88.9364L90.2384 27.166H90.2664L91.7364 21.762H93.3604L91.0924 29H89.4544L88.1104 23.624H88.0824L86.7524 29H85.0724L82.8324 21.762Z" fill="white"/>
<path fill-rule="evenodd" clip-rule="evenodd" d="M231.451 24.2671C231.451 21.5328 230.127 19.3752 227.595 19.3752C225.053 19.3752 223.515 21.5328 223.515 24.2457C223.515 27.4607 225.331 29.0842 227.937 29.0842C229.208 29.0842 230.169 28.7958 230.896 28.3899V26.2537C230.169 26.6169 229.336 26.8412 228.279 26.8412C227.243 26.8412 226.324 26.478 226.207 25.2177H231.43C231.43 25.0788 231.451 24.5234 231.451 24.2671ZM226.175 23.2524C226.175 22.0455 226.912 21.5435 227.585 21.5435C228.236 21.5435 228.93 22.0455 228.93 23.2524H226.175Z" fill="white"/>
<path fill-rule="evenodd" clip-rule="evenodd" d="M219.393 19.3752C218.346 19.3752 217.673 19.8666 217.299 20.2084L217.16 19.5461H214.811V32.0001L217.481 31.434L217.491 28.4113C217.876 28.689 218.442 29.0842 219.382 29.0842C221.294 29.0842 223.035 27.5461 223.035 24.1603C223.024 21.0628 221.262 19.3752 219.393 19.3752ZM218.752 26.7344C218.122 26.7344 217.748 26.5101 217.491 26.2324L217.481 22.2698C217.758 21.96 218.143 21.7464 218.752 21.7464C219.724 21.7464 220.397 22.8359 220.397 24.2351C220.397 25.6663 219.734 26.7344 218.752 26.7344Z" fill="white"/>
<path fill-rule="evenodd" clip-rule="evenodd" d="M211.136 18.745L213.817 18.1682V16L211.136 16.5661V18.745Z" fill="white"/>
<path d="M213.817 19.5566H211.136V28.9024H213.817V19.5566Z" fill="white"/>
<path fill-rule="evenodd" clip-rule="evenodd" d="M208.263 20.3471L208.092 19.5567H205.785V28.9025H208.455V22.5687C209.086 21.7463 210.154 21.8958 210.485 22.0133V19.5567C210.143 19.4285 208.893 19.1935 208.263 20.3471Z" fill="white"/>
<path fill-rule="evenodd" clip-rule="evenodd" d="M202.922 17.239L200.316 17.7944L200.306 26.3498C200.306 27.9306 201.491 29.0948 203.072 29.0948C203.948 29.0948 204.589 28.9346 204.941 28.7424V26.5741C204.599 26.713 202.912 27.2043 202.912 25.6235V21.8318H204.941V19.5568H202.912L202.922 17.239Z" fill="white"/>
<path fill-rule="evenodd" clip-rule="evenodd" d="M195.702 22.2698C195.702 21.8532 196.044 21.693 196.61 21.693C197.422 21.693 198.447 21.9387 199.259 22.3766V19.8666C198.372 19.5141 197.497 19.3752 196.61 19.3752C194.442 19.3752 193 20.5074 193 22.3979C193 25.3459 197.059 24.8759 197.059 26.1469C197.059 26.6383 196.632 26.7985 196.033 26.7985C195.147 26.7985 194.015 26.4353 193.117 25.944V28.4861C194.111 28.9133 195.115 29.0949 196.033 29.0949C198.255 29.0949 199.782 27.9947 199.782 26.0829C199.772 22.8999 195.702 23.466 195.702 22.2698Z" fill="white"/>
</svg>
